<svg xmlns="http://www.w3.org/2000/svg" width="375" viewBox="0 0 375 375" height="375" version="1.0"><defs><clipPath id="a"><path d="M 375 187.5 C 375 291.050781 291.050781 375 187.5 375 C 83.945312 375 0 291.050781 0 187.5 C 0 83.949219 83.945312 0 187.5 0 C 291.054688 0 375 83.949219 375 187.5 Z M 375 187.5"/></clipPath><clipPath id="b"><path d="M 61.339844 60 L 313.339844 60 L 313.339844 312 L 61.339844 312 Z M 61.339844 60"/></clipPath></defs><g clip-path="url(#a)"><path fill="#173305" d="M-37.5 -37.5H412.5V412.5H-37.5z"/></g><g clip-path="url(#b)" fill="#FFF" fill-rule="evenodd"><path d="M 86.539062 152.050781 L 183.140625 152.050781 L 183.140625 206.695312 L 86.539062 206.695312 Z M 195.738281 152.050781 L 292.339844 152.050781 L 292.339844 206.695312 L 195.738281 206.695312 Z M 192.851562 151.941406 C 192.851562 151.941406 246.554688 100.253906 217.769531 88.566406 C 188.957031 76.875 191.34375 146.535156 191.34375 146.535156 C 191.34375 146.535156 180.644531 61.003906 221.640625 78.910156 C 262.613281 96.796875 195.390625 149.796875 195.390625 149.796875 C 195.390625 149.796875 293.804688 65.644531 313.339844 149.796875 C 281.753906 91.5 192.851562 151.941406 192.851562 151.941406 C 192.851562 151.941406 94.4375 117.679688 61.339844 160.480469 C 73.546875 82.304688 191.34375 151.285156 191.34375 151.285156 C 191.34375 151.285156 95.289062 93.402344 135.867188 65.621094 C 176.445312 37.820312 189.660156 142.792969 189.660156 142.792969 C 189.660156 142.792969 176.753906 63.105469 143.832031 78.910156 C 110.886719 94.695312 192.851562 151.941406 192.851562 151.941406 Z M 195.738281 219.304688 L 279.738281 219.304688 L 279.738281 311.777344 L 195.738281 311.777344 Z M 99.140625 219.304688 L 183.140625 219.304688 L 183.140625 311.777344 L 99.140625 311.777344 Z M 99.140625 219.304688"/><path d="M 86.539062 152.050781 L 183.140625 152.050781 L 183.140625 206.695312 L 86.539062 206.695312 Z M 195.738281 152.050781 L 292.339844 152.050781 L 292.339844 206.695312 L 195.738281 206.695312 Z M 192.851562 151.941406 C 192.851562 151.941406 246.554688 100.253906 217.769531 88.566406 C 188.957031 76.875 191.34375 146.535156 191.34375 146.535156 C 191.34375 146.535156 180.644531 61.003906 221.640625 78.910156 C 262.613281 96.796875 195.390625 149.796875 195.390625 149.796875 C 195.390625 149.796875 293.804688 65.644531 313.339844 149.796875 C 281.753906 91.5 192.851562 151.941406 192.851562 151.941406 C 192.851562 151.941406 94.4375 117.679688 61.339844 160.480469 C 73.546875 82.304688 191.34375 151.285156 191.34375 151.285156 C 191.34375 151.285156 95.289062 93.402344 135.867188 65.621094 C 176.445312 37.820312 189.660156 142.792969 189.660156 142.792969 C 189.660156 142.792969 176.753906 63.105469 143.832031 78.910156 C 110.886719 94.695312 192.851562 151.941406 192.851562 151.941406 Z M 195.738281 219.304688 L 279.738281 219.304688 L 279.738281 311.777344 L 195.738281 311.777344 Z M 99.140625 219.304688 L 183.140625 219.304688 L 183.140625 311.777344 L 99.140625 311.777344 Z M 99.140625 219.304688"/></g></svg>